<?xml version="1.0" encoding="UTF-8" standalone="no"?><!DOCTYPE svg PUBLIC "-//W3C//DTD SVG 1.1//EN" "http://www.w3.org/Graphics/SVG/1.1/DTD/svg11.dtd"><svg width="100%" height="100%" viewBox="0 0 424 84" version="1.1" xmlns="http://www.w3.org/2000/svg" xmlns:xlink="http://www.w3.org/1999/xlink" xml:space="preserve" xmlns:serif="http://www.serif.com/" style="fill-rule:evenodd;clip-rule:evenodd;stroke-linecap:round;stroke-linejoin:round;stroke-miterlimit:1.5;"><g><rect x="1.75" y="1.75" width="420" height="80" style="fill:none;stroke:#373737;stroke-width:3.5px;"/><path d="M131.75,71.75l-40,-60l-40,0l-40,60" style="fill:none;stroke:#e2be00;stroke-width:3.5px;"/><path d="M11.75,71.75c13.064,0.044 26.503,-6.236 39.534,-15.446c12.417,-8.775 26.894,-19.38 40.156,-29.009c13.086,-9.501 26.921,-15.664 40.31,-15.545" style="fill:none;stroke:#da0000;stroke-width:3.5px;"/><path d="M141.75,11.75c0,0 36.307,0 60.003,0c5.304,0 10.39,2.107 14.14,5.857c3.75,3.75 5.857,8.836 5.857,14.14c0,0.002 0,0.004 0,0.006c0,5.304 -2.107,10.39 -5.857,14.14c-3.75,3.75 -8.836,5.857 -14.14,5.857c-23.696,0 -60.003,0 -60.003,0l0,20" style="fill:none;stroke:#373737;stroke-width:3.5px;"/><path d="M231.75,11.75l0,60l80,0" style="fill:none;stroke:#373737;stroke-width:3.5px;"/><path d="M321.75,11.75l0,60" style="fill:none;stroke:#373737;stroke-width:3.5px;"/><path d="M331.75,11.75l80,0" style="fill:none;stroke:#373737;stroke-width:3.5px;"/><path d="M371.75,11.75l0,60" style="fill:none;stroke:#373737;stroke-width:3.5px;"/></g></svg>