<?xml version="1.0" encoding="UTF-8"?>
<svg xmlns="http://www.w3.org/2000/svg">
<symbol id="github" viewBox="0 0 64 64">
  <path d="M32 0C14 0 0 14 0 32c0 21 19 30 22 30 2 0 2-1 2-2v-5c-7 2-10-2-11-5 0 0 0-1-2-3-1-1-5-3-1-3 3 0 5 4 5 4 3 4 7 3 9 2 0-2 2-4 2-4-8-1-14-4-14-15 0-4 1-7 3-9 0 0-2-4 0-9 0 0 5 0 9 4 3-2 13-2 16 0 4-4 9-4 9-4 2 7 0 9 0 9 2 2 3 5 3 9 0 11-7 14-14 15 1 1 2 3 2 6v8c0 1 0 2 2 2 3 0 22-9 22-30C64 14 50 0 32 0z"/>
</symbol>
<symbol id="twitter" viewBox="0 0 64 64">
  <path d="M60 16l-6 1 4-5-7 2c-9-10-23 1-19 10C16 24 8 12 8 12s-6 9 4 16l-6-2c0 6 4 10 11 12h-7c4 8 11 8 11 8s-6 5-17 5c33 16 53-14 50-30z"/>
</symbol>
</svg>
